{
    "asset" : {
        "generator" : "Khronos glTF Blender I/O v1.6.16",
        "version" : "2.0"
    },
    "extensionsUsed" : [
        "KHR_materials_transmission"
    ],
    "scene" : 0,
    "scenes" : [
        {
            "name" : "Scene",
            "nodes" : [
                0,
                1,
                2,
                3,
                4,
                5,
                6,
                7,
                8
            ]
        }
    ],
    "nodes" : [
        {
            "mesh" : 0,
            "name" : "Cube",
            "translation" : [
                -7.847414016723633,
                0,
                -3.29262113571167
            ]
        },
        {
            "name" : "Light",
            "rotation" : [
                0.16907575726509094,
                0.7558803558349609,
                -0.27217137813568115,
                0.570947527885437
            ],
            "scale" : [
                0.826367199420929,
                0.8263670802116394,
                0.826367199420929
            ],
            "translation" : [
                -8.325223922729492,
                1.3294556140899658,
                -3.803093671798706
            ]
        },
        {
            "name" : "Camera",
            "rotation" : [
                0.6357547044754028,
                0.28305360674858093,
                -0.27245473861694336,
                0.6644283533096313
            ],
            "translation" : [
                19.2144775390625,
                6.686990737915039,
                24.48760986328125
            ]
        },
        {
            "mesh" : 1,
            "name" : "glass",
            "rotation" : [
                0,
                0.9999983310699463,
                0,
                -0.0018332855543121696
            ],
            "scale" : [
                0.050000011920928955,
                1,
                1
            ],
            "translation" : [
                -6.722807884216309,
                0.39054393768310547,
                -5.578972339630127
            ]
        },
        {
            "mesh" : 2,
            "name" : "Cube.003",
            "rotation" : [
                -1,
                0,
                0,
                -4.371138828673793e-08
            ],
            "scale" : [
                0.6511303186416626,
                0.5426085591316223,
                0.5426085591316223
            ],
            "translation" : [
                -7.843234539031982,
                0.04524994641542435,
                -3.278756618499756
            ]
        },
        {
            "name" : "Light.001",
            "rotation" : [
                0.16907575726509094,
                0.7558803558349609,
                -0.27217137813568115,
                0.570947527885437
            ],
            "scale" : [
                0.826367199420929,
                0.8263670802116394,
                0.826367199420929
            ],
            "translation" : [
                -7.330904006958008,
                1.3294556140899658,
                -3.803093671798706
            ]
        },
        {
            "name" : "Light.002",
            "rotation" : [
                0.16907575726509094,
                0.7558803558349609,
                -0.27217137813568115,
                0.570947527885437
            ],
            "scale" : [
                0.826367199420929,
                0.8263670802116394,
                0.826367199420929
            ],
            "translation" : [
                -7.330904006958008,
                1.3294556140899658,
                -2.8056068420410156
            ]
        },
        {
            "name" : "Light.003",
            "rotation" : [
                0.16907575726509094,
                0.7558803558349609,
                -0.27217137813568115,
                0.570947527885437
            ],
            "scale" : [
                0.826367199420929,
                0.8263670802116394,
                0.826367199420929
            ],
            "translation" : [
                -8.325223922729492,
                1.3294556140899658,
                -2.8056068420410156
            ]
        },
        {
            "mesh" : 3,
            "name" : "Cube.004",
            "scale" : [
                1.3382160663604736,
                1,
                -1.4584319591522217
            ],
            "translation" : [
                -6.923709869384766,
                5.9023261070251465,
                -3.2763335704803467
            ]
        }
    ],
    "materials" : [
        {
            "doubleSided" : true,
            "name" : "StoneMarbleCalacatta004_4K.002",
            "normalTexture" : {
                "index" : 0
            },
            "pbrMetallicRoughness" : {
                "baseColorTexture" : {
                    "index" : 1
                },
                "metallicFactor" : 0,
                "metallicRoughnessTexture" : {
                    "index" : 2
                }
            }
        },
        {
            "alphaMode" : "BLEND",
            "doubleSided" : true,
            "extensions" : {
                "KHR_materials_transmission" : {
                    "transmissionFactor" : 1
                }
            },
            "name" : "glass materials",
            "pbrMetallicRoughness" : {
                "baseColorFactor" : [
                    1,
                    1,
                    1,
                    0.5
                ],
                "metallicFactor" : 0,
                "roughnessFactor" : 0.11999999731779099
            }
        },
        {
            "doubleSided" : true,
            "name" : "MetalStainlessSteelBrushedElongated005_2K",
            "normalTexture" : {
                "index" : 3
            },
            "pbrMetallicRoughness" : {
                "baseColorTexture" : {
                    "index" : 4
                },
                "metallicRoughnessTexture" : {
                    "index" : 5
                }
            }
        }
    ],
    "meshes" : [
        {
            "name" : "Cube",
            "primitives" : [
                {
                    "attributes" : {
                        "POSITION" : 0,
                        "NORMAL" : 1,
                        "TEXCOORD_0" : 2
                    },
                    "indices" : 3,
                    "material" : 0
                }
            ]
        },
        {
            "name" : "Cube.003",
            "primitives" : [
                {
                    "attributes" : {
                        "POSITION" : 4,
                        "NORMAL" : 5,
                        "TEXCOORD_0" : 6
                    },
                    "indices" : 7,
                    "material" : 1
                }
            ]
        },
        {
            "name" : "Cube.001",
            "primitives" : [
                {
                    "attributes" : {
                        "POSITION" : 8,
                        "NORMAL" : 9,
                        "TEXCOORD_0" : 10
                    },
                    "indices" : 11,
                    "material" : 0
                }
            ]
        },
        {
            "name" : "Cube.004",
            "primitives" : [
                {
                    "attributes" : {
                        "POSITION" : 12,
                        "NORMAL" : 13,
                        "TEXCOORD_0" : 14
                    },
                    "indices" : 15,
                    "material" : 2
                }
            ]
        }
    ],
    "textures" : [
        {
            "sampler" : 0,
            "source" : 0
        },
        {
            "sampler" : 0,
            "source" : 1
        },
        {
            "sampler" : 0,
            "source" : 2
        },
        {
            "sampler" : 0,
            "source" : 3
        },
        {
            "sampler" : 0,
            "source" : 4
        },
        {
            "sampler" : 0,
            "source" : 5
        }
    ],
    "images" : [
        {
            "bufferView" : 4,
            "mimeType" : "image/png",
            "name" : "baked_mid_nor"
        },
        {
            "bufferView" : 5,
            "mimeType" : "image/png",
            "name" : "baked_mid"
        },
        {
            "bufferView" : 6,
            "mimeType" : "image/png",
            "name" : "baked_mid_rog"
        },
        {
            "bufferView" : 19,
            "mimeType" : "image/png",
            "name" : "baked_top_nor"
        },
        {
            "bufferView" : 20,
            "mimeType" : "image/png",
            "name" : "baked_top_cl"
        },
        {
            "bufferView" : 21,
            "mimeType" : "image/png",
            "name" : "baked_top_gls-baked_top_rog"
        }
    ],
    "accessors" : [
        {
            "bufferView" : 0,
            "componentType" : 5126,
            "count" : 1956,
            "max" : [
                1.1200000047683716,
                2.0032689571380615,
                1.1200000047683716
            ],
            "min" : [
                -1.1200000047683716,
                0.09903138875961304,
                -1.1200000047683716
            ],
            "type" : "VEC3"
        },
        {
            "bufferView" : 1,
            "componentType" : 5126,
            "count" : 1956,
            "type" : "VEC3"
        },
        {
            "bufferView" : 2,
            "componentType" : 5126,
            "count" : 1956,
            "type" : "VEC2"
        },
        {
            "bufferView" : 3,
            "componentType" : 5123,
            "count" : 4260,
            "type" : "SCALAR"
        },
        {
            "bufferView" : 7,
            "componentType" : 5126,
            "count" : 100,
            "max" : [
                40.90989685058594,
                5.518550872802734,
                -1.3817696571350098
            ],
            "min" : [
                4.011346340179443,
                1.270402431488037,
                -3.1997461318969727
            ],
            "type" : "VEC3"
        },
        {
            "bufferView" : 8,
            "componentType" : 5126,
            "count" : 100,
            "type" : "VEC3"
        },
        {
            "bufferView" : 9,
            "componentType" : 5126,
            "count" : 100,
            "type" : "VEC2"
        },
        {
            "bufferView" : 10,
            "componentType" : 5123,
            "count" : 168,
            "type" : "SCALAR"
        },
        {
            "bufferView" : 11,
            "componentType" : 5126,
            "count" : 24,
            "max" : [
                1.8797636032104492,
                0.065765380859375,
                2.193734884262085
            ],
            "min" : [
                -1.8797636032104492,
                -0.065765380859375,
                -2.193734884262085
            ],
            "type" : "VEC3"
        },
        {
            "bufferView" : 12,
            "componentType" : 5126,
            "count" : 24,
            "type" : "VEC3"
        },
        {
            "bufferView" : 13,
            "componentType" : 5126,
            "count" : 24,
            "type" : "VEC2"
        },
        {
            "bufferView" : 14,
            "componentType" : 5123,
            "count" : 36,
            "type" : "SCALAR"
        },
        {
            "bufferView" : 15,
            "componentType" : 5126,
            "count" : 88,
            "max" : [
                0.019831936806440353,
                0.03262448310852051,
                0.6388911604881287
            ],
            "min" : [
                -1.3859038352966309,
                -0.03262448310852051,
                -0.6334655284881592
            ],
            "type" : "VEC3"
        },
        {
            "bufferView" : 16,
            "componentType" : 5126,
            "count" : 88,
            "type" : "VEC3"
        },
        {
            "bufferView" : 17,
            "componentType" : 5126,
            "count" : 88,
            "type" : "VEC2"
        },
        {
            "bufferView" : 18,
            "componentType" : 5123,
            "count" : 180,
            "type" : "SCALAR"
        }
    ],
    "bufferViews" : [
        {
            "buffer" : 0,
            "byteLength" : 23472,
            "byteOffset" : 0
        },
        {
            "buffer" : 0,
            "byteLength" : 23472,
            "byteOffset" : 23472
        },
        {
            "buffer" : 0,
            "byteLength" : 15648,
            "byteOffset" : 46944
        },
        {
            "buffer" : 0,
            "byteLength" : 8520,
            "byteOffset" : 62592
        },
        {
            "buffer" : 0,
            "byteLength" : 217241,
            "byteOffset" : 71112
        },
        {
            "buffer" : 0,
            "byteLength" : 467784,
            "byteOffset" : 288356
        },
        {
            "buffer" : 0,
            "byteLength" : 312375,
            "byteOffset" : 756140
        },
        {
            "buffer" : 0,
            "byteLength" : 1200,
            "byteOffset" : 1068516
        },
        {
            "buffer" : 0,
            "byteLength" : 1200,
            "byteOffset" : 1069716
        },
        {
            "buffer" : 0,
            "byteLength" : 800,
            "byteOffset" : 1070916
        },
        {
            "buffer" : 0,
            "byteLength" : 336,
            "byteOffset" : 1071716
        },
        {
            "buffer" : 0,
            "byteLength" : 288,
            "byteOffset" : 1072052
        },
        {
            "buffer" : 0,
            "byteLength" : 288,
            "byteOffset" : 1072340
        },
        {
            "buffer" : 0,
            "byteLength" : 192,
            "byteOffset" : 1072628
        },
        {
            "buffer" : 0,
            "byteLength" : 72,
            "byteOffset" : 1072820
        },
        {
            "buffer" : 0,
            "byteLength" : 1056,
            "byteOffset" : 1072892
        },
        {
            "buffer" : 0,
            "byteLength" : 1056,
            "byteOffset" : 1073948
        },
        {
            "buffer" : 0,
            "byteLength" : 704,
            "byteOffset" : 1075004
        },
        {
            "buffer" : 0,
            "byteLength" : 360,
            "byteOffset" : 1075708
        },
        {
            "buffer" : 0,
            "byteLength" : 20563,
            "byteOffset" : 1076068
        },
        {
            "buffer" : 0,
            "byteLength" : 300723,
            "byteOffset" : 1096632
        },
        {
            "buffer" : 0,
            "byteLength" : 171744,
            "byteOffset" : 1397356
        }
    ],
    "samplers" : [
        {
            "magFilter" : 9729,
            "minFilter" : 9987
        }
    ],
    "buffers" : [
        {
            "byteLength" : 1569100,
            "uri" : "data:application/octet-stream;base64,"
        }
    ]
}
